<svg xmlns="http://www.w3.org/2000/svg" width="420" height="120" viewBox="0 0 420 120" fill="none">
  <title>Complain Tracker</title>
  <!-- Icon -->
  <g transform="translate(14,18)">
    <!-- Rounded square -->
    <rect x="0" y="0" width="84" height="84" rx="20" fill="#0B0F19"/>
    <!-- Speech bubble -->
    <path d="M23 28c0-6.1 4.9-11 11-11h22c6.1 0 11 4.9 11 11v16c0 6.1-4.9 11-11 11H42l-9.6 8.2c-1.2 1-3 .1-3-.1V55c-3.8-1.7-6.4-5.5-6.4-10V28z" fill="#FFFFFF" opacity="0.98"/>
    <!-- Checklist lines -->
    <g fill="#0B0F19" opacity="0.92">
      <rect x="39" y="31" width="21" height="4" rx="2"/>
      <rect x="39" y="40" width="21" height="4" rx="2"/>
      <rect x="39" y="49" width="16" height="4" rx="2"/>
    </g>
    <!-- Checkmarks -->
    <g stroke="#0B0F19" stroke-width="3.2" stroke-linecap="round" stroke-linejoin="round" opacity="0.9">
      <path d="M30.5 32.5l2.6 2.6 5-5.4"/>
      <path d="M30.5 41.5l2.6 2.6 5-5.4"/>
      <path d="M30.5 50.5l2.6 2.6 5-5.4"/>
    </g>
  </g>

  <!-- Wordmark -->
  <g transform="translate(118,38)" fill="#0B0F19">
    <text x="0" y="18" font-family="system-ui, -apple-system, Segoe UI, Roboto, Arial, sans-serif" font-size="26" font-weight="800" letter-spacing="-0.3">Complain</text>
    <text x="0" y="48" font-family="system-ui, -apple-system, Segoe UI, Roboto, Arial, sans-serif" font-size="26" font-weight="500" letter-spacing="-0.3" fill="#111827">Tracker</text>
  </g>
</svg>
